<svg xmlns="http://www.w3.org/2000/svg" version="1.1" xmlns:xlink="http://www.w3.org/1999/xlink" xmlns:svgjs="http://svgjs.com/svgjs" width="2550" height="200" preserveAspectRatio="none" viewBox="0 0 2550 200"><g mask="url(&quot;#SvgjsMask5382&quot;)" fill="none"><rect width="2550" height="200" x="0" y="0" fill="url(#SvgjsLinearGradient5383)"></rect><path d="M14 200L214 0L289 0L89 200z" fill="url(#SvgjsLinearGradient5384)"></path><path d="M484.75 200L684.75 0L1047.75 0L847.75 200z" fill="url(#SvgjsLinearGradient5384)"></path><path d="M916.5 200L1116.5 0L1485.5 0L1285.5 200z" fill="url(#SvgjsLinearGradient5384)"></path><path d="M1338.25 200L1538.25 0L1923.75 0L1723.75 200z" fill="url(#SvgjsLinearGradient5384)"></path><path d="M2509 200L2309 0L1728.5 0L1928.5 200z" fill="url(#SvgjsLinearGradient5385)"></path><path d="M2116.25 200L1916.25 0L1406.25 0L1606.25 200z" fill="url(#SvgjsLinearGradient5385)"></path><path d="M1666.5 200L1466.5 0L1100.5 0L1300.5 200z" fill="url(#SvgjsLinearGradient5385)"></path><path d="M1211.75 200L1011.75 0L543.75 0L743.75 200z" fill="url(#SvgjsLinearGradient5385)"></path><path d="M2433.341052420293 200L2550 83.34105242029332L2550 200z" fill="url(#SvgjsLinearGradient5384)"></path><path d="M0 200L116.65894757970668 200L 0 83.34105242029332z" fill="url(#SvgjsLinearGradient5385)"></path></g><defs><mask id="SvgjsMask5382"><rect width="2550" height="200" fill="#ffffff"></rect></mask><linearGradient x1="23.04%" y1="-293.75%" x2="76.96%" y2="393.75%" gradientUnits="userSpaceOnUse" id="SvgjsLinearGradient5383"><stop stop-color="rgba(28, 105, 74, 1)" offset="0.2"></stop><stop stop-color="rgba(76, 149, 119, 1)" offset="0.61"></stop></linearGradient><linearGradient x1="0%" y1="100%" x2="100%" y2="0%" id="SvgjsLinearGradient5384"><stop stop-color="rgba(66, 153, 119, 1)" offset="0"></stop><stop stop-opacity="0" stop-color="rgba(66, 153, 119, 1)" offset="0.66"></stop></linearGradient><linearGradient x1="100%" y1="100%" x2="0%" y2="0%" id="SvgjsLinearGradient5385"><stop stop-color="rgba(66, 153, 119, 1)" offset="0"></stop><stop stop-opacity="0" stop-color="rgba(66, 153, 119, 1)" offset="0.66"></stop></linearGradient></defs></svg>